<?xml version="1.0" standalone="no"?>
<!DOCTYPE svg PUBLIC "-//W3C//DTD SVG 20010904//EN"
 "http://www.w3.org/TR/2001/REC-SVG-20010904/DTD/svg10.dtd">
<svg version="1.0" xmlns="http://www.w3.org/2000/svg"
 width="1344.000000pt" height="1474.000000pt" viewBox="0 0 1344.000000 1474.000000"
 preserveAspectRatio="xMidYMid meet">
<metadata>
Created by potrace 1.16, written by Peter Selinger 2001-2019
</metadata>
<g transform="translate(0.000000,1474.000000) scale(0.100000,-0.100000)"
fill="#000000" stroke="none">
<path d="M7085 13185 c-5 -2 -109 -27 -230 -55 -121 -28 -231 -56 -244 -61
-22 -9 -117 -64 -441 -257 -62 -36 -139 -108 -431 -399 l-357 -356 -248 -80
c-137 -44 -262 -82 -279 -84 -18 -3 -212 41 -489 110 l-458 115 -122 -33 c-66
-18 -186 -50 -266 -70 -169 -43 -116 -3 -538 -409 l-83 -80 7 -270 c3 -149 10
-278 14 -286 5 -8 84 -122 177 -253 139 -194 198 -267 329 -405 88 -92 185
-194 216 -227 46 -49 80 -107 188 -315 73 -140 140 -271 150 -290 11 -19 49
-105 86 -190 l67 -155 -1 -235 0 -235 -46 -195 c-73 -302 -154 -605 -193 -715
-19 -55 -61 -178 -94 -273 -45 -131 -94 -243 -203 -460 -106 -213 -164 -344
-224 -507 -84 -229 -212 -647 -257 -845 -28 -120 -152 -621 -180 -725 -9 -33
-58 -226 -110 -430 -60 -234 -126 -464 -180 -625 -47 -140 -111 -340 -141
-445 -31 -104 -71 -239 -89 -300 -27 -93 -84 -234 -208 -520 -16 -38 -67 -96
-213 -245 l-191 -195 -114 -219 c-63 -121 -119 -232 -126 -247 -12 -26 -10
-29 55 -81 76 -62 36 -54 394 -79 l156 -11 199 150 198 150 937 939 936 938
42 84 c106 217 298 584 345 661 28 47 120 192 203 323 130 203 185 303 381
695 l229 457 73 72 c40 40 74 72 74 70 5 -6 123 -220 158 -287 45 -84 65 -114
182 -280 333 -470 315 -447 499 -630 164 -163 202 -209 269 -330 14 -25 67
-117 117 -205 51 -88 104 -180 117 -205 14 -25 33 -58 43 -75 10 -16 55 -102
100 -190 45 -88 107 -206 137 -262 47 -89 52 -102 36 -107 -10 -2 -92 -21
-183 -40 -91 -20 -183 -41 -205 -46 -22 -6 -103 -24 -180 -40 -154 -33 -616
-182 -653 -211 -13 -10 -105 -96 -204 -191 -99 -95 -189 -179 -199 -186 -17
-11 -269 -489 -269 -509 0 -5 78 -51 172 -103 l173 -93 195 -41 195 -40 380
-6 380 -5 245 -88 c205 -73 284 -95 480 -137 129 -28 276 -59 325 -70 197 -44
1053 -90 1692 -90 l422 0 273 95 c235 82 616 227 756 286 l42 18 0 384 0 384
173 138 172 137 132 252 133 251 0 530 0 530 -69 150 c-37 83 -152 335 -256
560 l-187 410 -284 425 -283 425 -303 301 c-223 221 -328 318 -396 365 -51 35
-166 116 -255 179 -89 63 -207 146 -262 185 -55 38 -190 137 -300 220 -110 83
-301 227 -425 320 -124 93 -265 201 -315 241 -119 95 -641 618 -667 669 -79
154 -258 575 -273 642 -9 43 -59 267 -111 498 l-94 419 55 401 c113 814 112
805 204 1210 51 225 52 196 -25 467 l-68 240 -238 119 c-131 65 -239 119 -240
118 -2 0 -7 -2 -13 -4z m-105 -1034 l0 -250 -116 -288 -116 -288 -59 -330 -60
-329 12 -236 12 -235 82 -326 82 -326 120 -189 c66 -104 159 -251 206 -326 47
-76 144 -222 214 -326 70 -103 177 -260 237 -349 l109 -161 140 -108 c77 -60
175 -136 217 -169 42 -33 171 -133 286 -222 189 -146 241 -193 539 -493 248
-250 382 -376 540 -507 116 -96 234 -196 263 -221 29 -25 65 -54 80 -66 132
-100 369 -317 574 -523 l247 -248 112 -230 c252 -520 235 -476 294 -730 104
-444 126 -532 186 -752 l62 -222 -174 -278 -173 -278 -144 -110 c-79 -61 -194
-161 -255 -223 -62 -62 -113 -114 -114 -115 -1 -1 14 -69 33 -152 30 -134 34
-164 34 -297 0 -116 -3 -148 -13 -148 -7 0 -175 11 -373 25 -391 27 -401 28
-1029 117 l-430 62 -435 6 -435 6 -180 52 c-99 29 -219 63 -266 77 -48 13
-187 38 -310 55 -123 17 -255 35 -293 41 l-69 11 164 164 164 164 329 0 329 0
241 46 241 45 128 127 c70 70 127 131 127 135 0 5 -34 86 -76 180 -42 95 -91
206 -109 247 -18 41 -83 188 -144 326 l-111 252 0 179 0 178 88 88 c82 82 90
87 130 87 56 0 394 -151 516 -231 49 -33 94 -59 100 -59 14 0 336 134 336 140
0 3 -147 152 -327 332 l-328 327 -272 40 -272 41 -328 1 -328 0 -65 81 c-54
67 -536 650 -600 725 -10 11 -38 45 -62 75 -24 29 -176 213 -339 408 -162 195
-348 420 -414 500 -65 80 -125 151 -133 159 -7 8 -38 45 -69 82 -30 38 -58 69
-62 69 -3 -1 -81 -114 -173 -252 -156 -233 -168 -255 -168 -297 0 -25 -7 -116
-14 -201 -8 -85 -22 -245 -32 -355 -19 -227 -3 -184 -156 -400 -46 -66 -128
-181 -181 -255 -86 -121 -196 -290 -387 -595 -104 -166 -119 -189 -130 -202
-5 -7 -37 -57 -71 -113 -59 -97 -77 -120 -64 -81 3 11 2 22 -3 25 -5 3 -8 -9
-7 -27 2 -29 -32 -93 -43 -82 -3 2 1 12 9 21 12 15 12 17 -1 12 -9 -3 -15 -17
-15 -36 -1 -19 -13 -46 -33 -71 -18 -22 -32 -43 -32 -48 -1 -4 -11 -20 -23
-35 -20 -24 -23 -25 -23 -9 0 11 5 17 10 14 5 -4 7 1 3 10 -4 10 -2 14 6 11 7
-2 19 17 30 49 13 43 17 94 19 248 1 107 3 175 5 151 3 -28 9 -42 19 -42 12 0
14 53 14 360 0 233 4 360 10 360 6 0 10 111 10 313 0 248 3 325 15 371 9 33
13 61 10 64 -3 3 -5 -2 -5 -11 0 -9 -4 -17 -10 -17 -5 0 -10 -18 -10 -40 0
-22 -5 -40 -10 -40 -6 0 -8 17 -5 43 4 38 4 39 -4 9 -5 -19 -14 -39 -19 -44
-6 -6 4 40 23 103 19 63 42 119 50 125 9 7 12 14 6 15 -5 2 28 111 73 242 45
130 86 234 90 230 4 -4 5 -1 1 7 -3 8 15 74 40 145 25 72 61 175 80 230 42
126 102 294 115 320 5 11 59 155 120 320 61 165 115 309 120 320 49 107 50
114 50 445 0 220 -5 342 -15 405 -7 50 -28 192 -46 318 l-33 227 -59 68 c-83
93 -166 188 -207 236 -19 23 -70 80 -113 128 -49 54 -76 91 -71 99 4 7 3 9 -3
6 -5 -3 -18 4 -29 16 -60 69 -62 73 -53 88 8 12 9 12 7 -1 -3 -18 69 -97 79
-86 4 3 0 12 -8 19 -8 6 -21 20 -28 30 -17 22 2 23 23 1 9 -8 16 -10 16 -4 0
6 -7 13 -15 16 -13 5 -15 69 -15 485 0 313 3 479 10 479 6 0 10 18 10 41 0 26
4 38 11 34 31 -20 280 -22 690 -6 l245 10 165 66 c233 96 254 108 404 234 11
9 67 52 125 96 58 43 185 158 283 256 l178 177 107 32 c59 18 193 58 297 90
177 54 218 66 238 69 4 0 7 -111 7 -248z"/>
</g>
</svg>
